<?xml version="1.0" encoding="UTF-8"?>
<svg id="_レイヤー_1" data-name="レイヤー_1" xmlns="http://www.w3.org/2000/svg" version="1.1" viewBox="0 0 595.28 841.89">
  <!-- Generator: Adobe Illustrator 29.4.0, SVG Export Plug-In . SVG Version: 2.1.0 Build 152)  -->
  <defs>
    <style>
      .st0 {
        stroke-width: 3px;
      }

      .st0, .st1, .st2, .st3, .st4, .st5, .st6, .st7, .st8, .st9 {
        stroke-miterlimit: 10;
      }

      .st0, .st10, .st11, .st12, .st13, .st14, .st15, .st16, .st17, .st18, .st4, .st5, .st19, .st7, .st20, .st21, .st22 {
        fill: #4e3a38;
      }

      .st0, .st4, .st5, .st7 {
        stroke: #4e3a38;
      }

      .st1, .st2, .st3 {
        fill: none;
      }

      .st1, .st2, .st3, .st6 {
        stroke: #6e514c;
      }

      .st1, .st4, .st5, .st7 {
        stroke-width: .75px;
      }

      .st3, .st6 {
        stroke-width: .5px;
      }

      .st10 {
        letter-spacing: .28em;
      }

      .st10, .st11, .st12, .st13, .st14, .st15, .st16, .st17, .st18, .st20, .st21, .st22 {
        font-family: PKuretakeMeisekiStdN-Bold-83pv-RKSJ-H, 'A P-OTF KuretakeMeiseki StdN';
        font-size: 6px;
        font-weight: 700;
      }

      .st11 {
        letter-spacing: .22em;
      }

      .st12 {
        letter-spacing: .29em;
      }

      .st13 {
        letter-spacing: .29em;
      }

      .st14 {
        letter-spacing: .32em;
      }

      .st15 {
        letter-spacing: .61em;
      }

      .st16 {
        letter-spacing: .13em;
      }

      .st17 {
        letter-spacing: .12em;
      }

      .st18 {
        letter-spacing: .12em;
      }

      .st4 {
        letter-spacing: 0em;
      }

      .st4, .st5, .st7 {
        font-family: SavoyeLetPlain, 'Savoye LET';
        font-size: 19px;
      }

      .st5 {
        letter-spacing: 0em;
      }

      .st6 {
        fill: #231815;
      }

      .st7 {
        letter-spacing: 0em;
      }

      .st8 {
        fill: #6e514c;
        stroke: #da686b;
      }

      .st8, .st9 {
        stroke-width: .25px;
      }

      .st9 {
        fill: #5d4c4a;
        stroke: #913e41;
      }

      .st20 {
        letter-spacing: .1em;
      }

      .st21 {
        letter-spacing: .12em;
      }

      .st22 {
        letter-spacing: .12em;
      }
    </style>
  </defs>
  <g>
    <g>
      <path class="st0" d="M174.11,255.84l-10.07.32-.07.2c-1.57,4.12-3.62,7.68-6.16,10.68s-5.45,5.28-8.73,6.85c-3.28,1.57-6.88,2.42-10.79,2.55-2.67.08-5.04-.18-7.11-.79l1.2-3.15c3.2,1.49,6.29,2.19,9.26,2.1,4.64-.15,8.73-2.06,12.29-5.73,1.49-1.56,2.73-3.22,3.71-5,.98-1.77,2.03-4.24,3.15-7.41l.07-.2-4.08.13.24-1.38,4.29-.14.07-.25.26-.7c.84-2.59,1.58-5.12,2.23-7.6.65-2.48,1.44-5.83,2.35-10.07.87-3.97,1.49-7.17,1.84-9.61l4.15-2.03c-.22-.05-.39-.07-.53-.08-.14,0-.3-.02-.49-.05-6.82-.54-12.65-.74-17.51-.58-3.07.1-5.6.37-7.56.82-1.97.45-3.58,1.1-4.82,1.95-1.85,1.27-2.74,2.83-2.69,4.66.12,3.8,4.93,5.81,14.44,6.02l-2.62,2.96c-3.86-.12-6.99-.95-9.37-2.48-2.38-1.53-3.61-3.55-3.69-6.06-.1-3.32,1.9-6.05,6.02-8.21,3.48-1.81,8.66-2.82,15.53-3.04,1.83-.06,4.2-.02,7.11.1,2.9.12,5.91.31,9.02.55,3.11.24,5.7.52,7.76.83l.73.1-1.71,3.7-.73-.1c-2.41-.36-5.23-.71-8.45-1.07l-.28-.03-.03.24c-.11.68-.43,2.3-.96,4.87s-.99,4.69-1.4,6.38c-.41,1.69-.84,3.43-1.29,5.24-.46,1.81-.95,3.61-1.49,5.41-.93,3.19-1.8,5.86-2.62,8.02l9.79-.31-.24,1.38Z"/>
      <path class="st0" d="M198.63,250.04l-3.39,13.2c-.36,1.44-.54,2.57-.54,3.39,0,.72.16,1.35.47,1.88.31.53.7.79,1.15.79.7,0,1.85-.85,3.46-2.56l.5.5-.4.47c-1.27,1.47-2.25,2.5-2.94,3.08-.69.59-1.28.88-1.79.88-.77,0-1.44-.4-2-1.21-.57-.81-.85-1.74-.85-2.8,0-.77.29-2.51.87-5.23l.29-1.37c-.89,2.07-2.08,4.05-3.57,5.95-2.5,3.17-4.89,4.76-7.18,4.76-1.37,0-2.45-.49-3.25-1.48-.79-.99-1.19-2.31-1.19-3.97,0-2.26.64-4.63,1.93-7.11,1.29-2.48,2.89-4.51,4.8-6.11,1.91-1.6,3.77-2.4,5.57-2.4,1.9,0,3.32.7,4.26,2.09l.4-1.37,3.39-1.41ZM194.48,254.65c-.29-.91-.78-1.63-1.46-2.15-.69-.52-1.47-.78-2.36-.78-1.06,0-2.18.49-3.35,1.46-1.18.97-2.26,2.33-3.25,4.06-.77,1.37-1.41,2.89-1.93,4.54-.52,1.66-.78,3.03-.78,4.11,0,1.23.23,2.19.7,2.89.47.7,1.14,1.05,2,1.05,1.11,0,2.26-.52,3.46-1.55,1.2-1.03,2.39-2.51,3.57-4.44.72-1.11,1.29-2.21,1.7-3.32.41-1.11.87-2.65,1.37-4.62l.32-1.26Z"/>
      <path class="st0" d="M199.58,269.04l2.02-2.38c1.06,2.5,2.74,3.75,5.05,3.75,1.2,0,2.23-.39,3.08-1.17.85-.78,1.28-1.69,1.28-2.72,0-.75-.2-1.38-.61-1.91-.41-.53-1.38-1.42-2.92-2.67-1.42-1.15-2.38-2.06-2.87-2.72-.49-.66-.74-1.42-.74-2.29,0-1.13.33-2.18.99-3.14.66-.96,1.54-1.74,2.65-2.33,1.11-.59,2.27-.88,3.5-.88,1.08,0,1.99.27,2.72.81.73.54,1.1,1.23,1.1,2.07,0,1.11-.47,1.86-1.41,2.27-.14-1.13-.57-2.01-1.28-2.65-.71-.64-1.62-.96-2.72-.96-.99,0-1.85.32-2.58.96-.73.64-1.1,1.37-1.1,2.18,0,1.01.62,2.01,1.88,2.99l2.09,1.7c2.04,1.61,3.07,3.26,3.07,4.94,0,1.25-.36,2.42-1.06,3.52-.71,1.09-1.67,1.97-2.89,2.62s-2.5.97-3.84.97c-2.14,0-3.94-.99-5.41-2.96Z"/>
      <path class="st0" d="M243.38,242l-1.25-3.41c2.78-.81,5.41-2.05,7.89-3.72,2.48-1.67,4.43-3.52,5.85-5.56,1.42-2.03,2.13-4.03,2.13-6,0-1.46-.47-2.61-1.41-3.45-.94-.84-2.2-1.25-3.79-1.25-1.88,0-3.94.49-6.18,1.48-2.24.99-4.46,2.36-6.65,4.12s-4.29,3.88-6.29,6.36c-2.18,2.72-4,5.56-5.47,8.51s-2.57,5.97-3.31,9.03c-.75,3.06-1.12,6.24-1.12,9.52,0,5.59,1.28,10.01,3.85,13.28,2.57,3.27,6.08,4.91,10.53,4.91,2.87,0,5.65-.64,8.36-1.93,2.7-1.28,5.8-3.43,9.3-6.45l.72-.58.54.99c-3.55,3.52-7.12,6.17-10.71,7.93-3.58,1.76-7.2,2.64-10.84,2.64-3.29,0-6.21-.78-8.76-2.35-2.55-1.57-4.52-3.76-5.91-6.59-1.39-2.82-2.08-6.13-2.08-9.92,0-2.75.4-5.61,1.21-8.6.81-2.99,2.01-6.01,3.61-9.07,1.6-3.06,3.49-6.03,5.67-8.89,2.3-3.05,4.85-5.77,7.66-8.18,2.81-2.4,5.62-4.26,8.44-5.58,2.82-1.31,5.35-1.97,7.59-1.97,2.12,0,3.81.6,5.08,1.81,1.27,1.21,1.9,2.84,1.9,4.91,0,2.3-.76,4.7-2.29,7.19-1.52,2.49-3.55,4.72-6.09,6.68-2.54,1.96-5.26,3.34-8.15,4.14Z"/>
      <path class="st0" d="M259.67,271.71l9.59-49.35,3.79-1.84-9.99,43.94c.1-.17.14-.28.14-.32l.83-1.88c1.42-3.22,3.2-6.01,5.34-8.37,2.02-2.19,3.88-3.28,5.59-3.28.91,0,1.65.29,2.2.88.55.59.83,1.38.83,2.36,0,.55-.13,1.33-.4,2.34l-.36,1.52-1.12,4.4-.32,1.41c-.36,1.44-.54,2.55-.54,3.32s.13,1.39.4,1.86c.26.47.61.7,1.05.7.75,0,1.94-.89,3.57-2.67l.54.5-.32.4c-1.37,1.61-2.39,2.7-3.05,3.26-.66.56-1.26.85-1.79.85-.75,0-1.38-.4-1.91-1.19-.53-.79-.79-1.72-.79-2.78,0-.65.16-1.79.47-3.43l1.37-7.65c.22-1.13.32-1.97.32-2.53,0-.5-.13-.89-.4-1.15-.26-.26-.63-.4-1.08-.4-.89,0-1.91.52-3.07,1.57-1.15,1.05-2.31,2.5-3.48,4.35-1.17,1.85-2.18,3.83-3.05,5.93-.87,2.1-1.51,4.26-1.95,6.47l-2.42.76Z"/>
      <path class="st0" d="M296.84,265.76l.65.54c-1.49,1.97-2.95,3.4-4.36,4.27-1.42.88-2.95,1.32-4.58,1.32-1.95,0-3.51-.65-4.69-1.95-1.18-1.3-1.77-3.02-1.77-5.16s.57-4.36,1.71-6.58c1.14-2.22,2.57-4.06,4.29-5.52,1.72-1.46,3.42-2.18,5.1-2.18.99,0,1.8.29,2.44.87.64.58.96,1.32.96,2.24,0,1.85-1.01,3.7-3.03,5.56-2.02,1.85-4.77,3.43-8.26,4.73-.02.19-.04.41-.04.65,0,1.66.46,3.01,1.37,4.06.91,1.05,2.09,1.57,3.54,1.57,1.13,0,2.22-.35,3.28-1.06,1.06-.71,2.19-1.82,3.39-3.34ZM285.3,263.02c2.6-1.15,4.59-2.44,5.99-3.86.94-.96,1.7-2,2.27-3.1.58-1.11.87-2.1.87-2.99,0-1.13-.52-1.7-1.55-1.7-1.56,0-3.14,1.23-4.74,3.7-1.6,2.47-2.54,5.12-2.83,7.95Z"/>
      <path class="st0" d="M312.66,220.53l-9.81,42.67c.55-1.3,1.21-2.55,1.98-3.75.77-1.2,1.65-2.37,2.63-3.52.99-1.14,1.94-2.07,2.85-2.8,1.18-.94,2.36-1.64,3.55-2.09,1.19-.46,2.53-.72,4.02-.79l-.65,2.89c-.72-.14-1.26-.22-1.62-.22-2.84,0-5.48,1.43-7.94,4.29.99,2.65,2.03,5.03,3.14,7.14.62,1.23,1.17,2.21,1.64,2.94.47.73.9,1.27,1.3,1.6.4.34.79.51,1.17.51.91,0,2.07-.73,3.46-2.2l.29-.32.47.54c-2.43,2.93-4.2,4.4-5.3,4.4-.75,0-1.44-.32-2.09-.97s-1.41-1.77-2.27-3.35c-1.51-2.77-2.75-5.39-3.72-7.86-2.26,3.73-3.7,7.49-4.33,11.29l-2.34.76,9.67-49.31,3.9-1.84Z"/>
    </g>
    <path class="st2" d="M134.57,320.29c-16.22-18.78-21.61-40.23-21.61-66.98,0-62.78,50.89-113.67,113.67-113.67s113.67,50.89,113.67,113.67c0,3.92-.19,6.31-.95,15.31"/>
    <g>
      <path class="st3" d="M330.63,272.24c3.79-13.91-.85-52.1-13.1-70.1"/>
      <path class="st3" d="M313.47,195.51c0-1.72-5.83-7.96-5.83-7.96"/>
      <path class="st3" d="M300.63,179.7c-6.13-7.61-30.97-25.72-47.98-27.66"/>
      <path class="st3" d="M243.2,150.09c-2.21-1.3-14.51-1.3-14.51-1.3"/>
      <path class="st3" d="M216.78,149.44c-7.34-.65-34.93,6.31-44.27,14.18"/>
      <path class="st3" d="M165.85,167.97c-1.13.64-8.35,6.25-8.83,7.04"/>
      <path class="st3" d="M151.08,180.73c-6.32,4.78-20.79,28.49-20.46,30.64"/>
      <path class="st3" d="M127.42,219.57s-2.52,7.44-2.52,8.4"/>
      <path class="st6" d="M127.12,288.06c.24,1.16,3.02,8.97,3.71,10.08"/>
      <path class="st6" d="M134.57,305.43c1.24,3.65,10.5,16.48,10.5,16.48"/>
      <path class="st3" d="M123.31,235.17c-4.37,15.89-.43,40.62,1.05,44.58"/>
    </g>
    <g>
      <path class="st19" d="M158.96,200.09l-5.69-5.63-.62.63c-.23.24-.3.2-.54-.04l-.53-.52c-.3-.29-.28-.39-.09-.58l.62-.63-1.28-1.26c-.57-.56-.97-.95-1.19-1.29-.36-.53-.51-1.02-.31-1.58.11-.38.38-.75.75-1.14.19-.19.38-.35.56-.46l.32-.23c.31-.15.37-.01.62.23l.62.6c.25.25.29.34.25.42-.06.06-.22.1-.34.21-.3.31-.37.61-.26.9.09.24.33.56.77.98l1.05,1.03.75-.76c.29-.29.35-.29.67.02l.43.42c.38.38.34.42.09.67l-.78.79,5.64,5.58c.33.33.37.42.1.7l-.95.97c-.25.25-.32.26-.64-.05Z"/>
      <path class="st19" d="M161.88,191.58c-.72-.09-1.44-.51-2.07-1.32-.87-1.12-.95-2.04-.65-2.86.43-1.19,1.69-2.16,2.44-3.24.17-.22.31-.48.43-.72-.84-1.09-1.56-1.07-2.47-.36-.57.44-1.07,1.21-.66,2.04.18.36.14.39-.11.56l-1.13.67c-.18.11-.29.17-.46-.06-.17-.22-.28-.49-.37-.75-.63-1.72.46-3.07,1.63-3.98.96-.74,2.6-1.69,3.94-.84.42.27.82.72,1.12,1.11l2.91,3.76c.4.52.86,1.01,1.35,1.44.12.12.25.19.34.3.1.13-.1.28-.18.34l-1.11.86c-.31.24-.48.22-.65.06-.13-.1-.27-.29-.46-.47-.04,1.19-.56,2.03-1.44,2.71-.75.58-1.57.83-2.4.74ZM164.34,187.35c.12-.95-.59-1.7-1.16-2.44-.32.57-.72,1.06-1.15,1.54-.5.6-1.21,1.44-.52,2.32.57.74,1.41.5,1.94.09.47-.37.8-.89.89-1.51Z"/>
      <path class="st19" d="M169.76,183.7c-.12-.06-.53-.28-.73-.42-.15-.1-.21-.11-.3-.24-.05-.08.06-.3.1-.36.03-.02.38-.67.59-1.02.09-.15.15-.25.23-.28.07-.05.32.2.38.25.23.18.53.31.81.39.75.24,1.43.01,1.95-.36.6-.43,1.26-1.25.66-2.08-.19-.27-.42-.42-.73-.45-.37-.02-1.07.28-1.42.42-1.49.64-3.55,1.45-4.88-.4-1.32-1.84-.48-3.64.98-4.69,1.22-.88,2.47-1.19,4.02-.5.12.06.63.38.68.46.05.08-.11.31-.13.35l-.61.99c-.1.18-.15.25-.22.3-.03,0-.25-.17-.42-.27-.26-.19-.59-.26-.92-.26-.48-.03-.92.2-1.29.46-.49.35-.92.98-.46,1.62.19.27.44.37.74.36.25,0,.6-.15.85-.23.96-.4,2.33-1.1,3.42-.93.81.11,1.53.51,2.05,1.23,1.41,1.97.43,4.03-1.13,5.14-1.32.95-2.62,1.3-4.2.54Z"/>
      <path class="st19" d="M179.05,177.42l-7.46-11.73c-.21-.34-.18-.47.12-.66l1.04-.66c.42-.27.59-.1.86.31l2.75,4.39c.16-1.21.6-2.01,1.56-2.62.31-.2.63-.35,1-.42,1.75-.39,2.88.96,3.83,2.46l2.98,4.69c.2.31.24.54-.05.72l-1.06.67c-.38.24-.52.22-.81-.23-.94-1.48-1.87-2.98-2.81-4.46-.64-1-1.48-1.99-2.6-1.28-.3.19-.5.48-.61.8-.31.78.08,1.55.44,2.29.52,1.13,1.24,2.14,1.89,3.2l.81,1.28c.29.45.22.61-.18.86l-.99.63c-.33.21-.44.14-.7-.25Z"/>
      <path class="st19" d="M184.74,160.5l-.54-1.11c-.18-.38-.17-.49.09-.62l1.39-.68c.22-.11.42-.02.58.29l.57,1.18c.16.33.12.57-.22.73l-1.24.61c-.24.12-.4.07-.63-.39ZM190.23,171.77l-3.92-8.06c-.2-.42-.26-.63.11-.81l1.22-.6c.2-.1.46-.15.66.27l3.99,8.18c.22.46.22.59-.24.82l-1.2.59c-.28.14-.45-.07-.61-.4Z"/>
      <path class="st19" d="M195.45,164.71c-.85-2.93.04-5.77,2.75-6.56,2.73-.8,5.08,1.02,5.95,4,.86,2.96-.15,5.68-2.84,6.47-2.69.79-4.99-.93-5.86-3.9ZM201.88,162.83c-.45-1.55-1.36-3.2-3-2.72-1.58.46-1.63,2.35-1.19,3.87.44,1.5,1.42,3.04,3,2.57,1.6-.47,1.64-2.18,1.19-3.73Z"/>
      <path class="st19" d="M210.12,165.69l-2.68-8.72c-.14-.45-.12-.52.3-.65l1.18-.36c.43-.13.57.04.67.36.05.18.1.38.17.61.53-1.09,1.1-1.75,2.22-2.1,1.28-.39,2.71.07,3.42,1.46.22.42.37.86.51,1.31l1.76,5.73c.14.47.13.64-.3.78l-1.28.39c-.37.11-.47,0-.6-.42l-1.46-4.75c-.37-1.21-.88-2.51-2.26-2.09-.35.11-.68.33-.9.64-.5.69-.27,1.57-.02,2.38l1.49,4.86c.15.49.05.52-.38.65l-1.44.44c-.22.07-.29-.18-.4-.51Z"/>
    </g>
    <g>
      <path class="st19" d="M244.03,159.23c1.16-2.8,3.66-4.32,6.21-3.27,1.41.58,2.47,1.85,2.56,3.58,0,.12,0,.25-.05.38-.07.17-.32.19-.46.24-.14.02-.61.13-.98.17-.22.04-.34.06-.44.04-.13-.05-.13-.23-.14-.46-.07-.58-.13-1.62-1.16-2.04-1.56-.64-2.74.76-3.38,2.29-.6,1.47-.74,3.41.79,4.03,1.14.47,1.99-.29,2.48-.77.2-.22.32-.3.42-.26.1.02.13.11.25.25l.6.88c.08.13.23.3.17.45-.04.11-.16.24-.29.33-.24.25-.6.54-.78.64-1.19.77-2.58.8-3.76.32-2.61-1.08-3.18-4.01-2.02-6.82Z"/>
      <path class="st19" d="M254.75,167.79l7.09-11.96c.2-.34.34-.37.64-.19l1.06.63c.43.25.36.48.11.91l-2.68,4.44c1.15-.4,2.07-.38,3.04.2.32.19.6.41.83.71,1.14,1.38.45,3-.46,4.53l-2.83,4.78c-.19.32-.37.46-.67.28l-1.08-.64c-.39-.23-.43-.36-.16-.83.89-1.51,1.81-3.02,2.7-4.53.61-1.02,1.1-2.22-.03-2.9-.3-.18-.66-.23-.99-.18-.83.07-1.35.78-1.85,1.43-.77.98-1.35,2.08-2,3.13l-.77,1.31c-.27.46-.45.47-.85.23l-1.01-.6c-.34-.2-.33-.33-.09-.73Z"/>
      <path class="st19" d="M268.38,168.97c1.73-2.46,4.44-3.52,6.71-1.92,2.29,1.61,2.19,4.62.48,7.06-.24.34-.41.4-.73.17l-4.97-3.49c-.75,1.35-.85,2.79.36,3.65,1.1.77,2.01.36,2.56.09.22-.1.34-.27.44-.2.14.1.18.24.26.38.21.32.46.81.54.95.09.12.17.29.05.46-.07.1-.18.16-.29.23-1.72,1.02-3.38.79-4.81-.21-2.34-1.65-2.43-4.56-.61-7.16ZM274.35,171.83c.12-.2.23-.44.31-.66.36-.97.1-2.01-.66-2.54-1.06-.75-2.24-.29-3.11.78l3.46,2.43Z"/>
      <path class="st19" d="M279.15,175.37c1.81-2.43,4.6-3.29,6.82-1.65,1.22.91,1.94,2.4,1.6,4.1-.04.12-.06.25-.14.36-.11.15-.36.11-.5.12-.14-.02-.62-.03-1-.07-.22-.02-.34-.02-.44-.06-.12-.09-.07-.25-.03-.48.08-.58.27-1.6-.62-2.27-1.36-1.01-2.84.07-3.83,1.39-.95,1.27-1.55,3.12-.23,4.1.99.74,2,.21,2.59-.14.25-.16.39-.21.47-.15.1.04.1.14.18.31l.36,1c.04.15.15.35.05.48-.07.09-.22.19-.37.25-.29.19-.71.37-.91.43-1.34.46-2.7.15-3.72-.62-2.26-1.68-2.1-4.67-.29-7.1Z"/>
      <path class="st19" d="M285.27,186.68l11.23-8.15c.3-.22.43-.24.64.05l.86,1.18c.23.32.16.42-.18.67-2.13,1.55-4.29,3.06-6.42,4.61l4.33.32c.29.04.56.05.73.29l1.03,1.42c.06.08.15.25.02.34-.11.08-.35.08-.47.06l-4.47-.32-2.55,5.82c-.08.13-.17.33-.32.43-.15.11-.29,0-.37-.11l-.91-1.25c-.29-.4-.16-.54,0-.95l1.93-4.17-1.42-.09-2.36,1.71c-.25.18-.45.33-.65.06l-.86-1.18c-.28-.38-.18-.45.21-.74Z"/>
    </g>
    <path class="st9" d="M202.92,361.35c-1.33.22-9.66,4.97-16.03-1.54-12.81-13.11-22.98-23.84-27.43-26.2-6.06-5.34-26.2-7.4-43.36-2.53,0-3.42,13.07-13.38,26.83-12.86,13.27.5,36.78,6.45,51.34,27.33.9,1.29,2.64,1.68,3.95.8,13.15-13.74,87.66-57.22,87.66-57.22,0,0,46.74-24.92,72.79-24.95,2.71,0,2.65-.16,4.48.2,3.09.61,1.29,2.89.21,3.48,0,0-1.55.92-3.81,1.8-18.64,3.75-76.2,28.48-101.48,48.55-6.98,2.67-55.17,43.15-55.17,43.15Z"/>
  </g>
  <text class="st5" transform="translate(1163.24 510.95) rotate(-1.8) scale(1.12)"><tspan x="0" y="0">F</tspan></text>
  <text class="st7" transform="translate(1174.76 510.01)"><tspan x="0" y="0">as</tspan></text>
  <text class="st4" transform="translate(1184.6 511.53) scale(1.24)"><tspan x="0" y="0">C</tspan></text>
  <text class="st7" transform="translate(1195.73 510.01)"><tspan x="0" y="0">hek</tspan></text>
  <path class="st1" d="M1163.26,522.6c-4.17-4.83-5.56-10.35-5.56-17.23,0-16.15,13.09-29.23,29.23-29.23s29.23,13.09,29.23,29.23c0,1.01-.05,1.62-.25,3.94"/>
  <g>
    <path class="st3" d="M1213.69,510.24c.98-3.58-.22-13.4-3.37-18.03"/>
    <path class="st3" d="M1209.28,490.5c0-.44-1.5-2.05-1.5-2.05"/>
    <path class="st3" d="M1205.97,486.44c-1.58-1.96-7.97-6.61-12.34-7.11"/>
    <path class="st3" d="M1191.2,478.82c-.57-.33-3.73-.33-3.73-.33"/>
    <path class="st3" d="M1184.41,478.65c-1.89-.17-8.98,1.62-11.39,3.65"/>
    <path class="st3" d="M1171.31,483.42c-.29.16-2.15,1.61-2.27,1.81"/>
    <path class="st3" d="M1167.51,486.7c-1.62,1.23-5.35,7.33-5.26,7.88"/>
    <path class="st3" d="M1161.42,496.69s-.65,1.91-.65,2.16"/>
    <path class="st6" d="M1161.35,514.31c.06.3.78,2.31.95,2.59"/>
    <path class="st6" d="M1163.26,518.77c.32.94,2.7,4.24,2.7,4.24"/>
    <path class="st3" d="M1160.37,500.7c-1.12,4.09-.11,10.45.27,11.47"/>
  </g>
  <text class="st16" transform="translate(1168.84 492.91) rotate(-45.49) scale(.88 1)"><tspan x="0" y="0">f</tspan></text>
  <text class="st21" transform="translate(1171.25 490.74) rotate(-37.74) scale(.88 1)"><tspan x="0" y="0">a</tspan></text>
  <text class="st22" transform="translate(1174.48 488.43) rotate(-35.64) scale(.88 1)"><tspan x="0" y="0">s</tspan></text>
  <text class="st17" transform="translate(1177.52 486.86) rotate(-32.47) scale(.88 1)"><tspan x="0" y="0">h</tspan></text>
  <text class="st18" transform="translate(1180.28 485.24) rotate(-25.98) scale(.88 1)"><tspan x="0" y="0">i</tspan></text>
  <text class="st10" transform="translate(1181.9 484.24) rotate(-16.26) scale(.88 1)"><tspan x="0" y="0">o</tspan></text>
  <text class="st12" transform="translate(1185.8 482.58) rotate(-17.07) scale(.88 1)"><tspan x="0" y="0">n</tspan></text>
  <text class="st20" transform="translate(1191.37 483.77) rotate(22.4) scale(.88 1)"><tspan x="0" y="0">c</tspan></text>
  <text class="st11" transform="translate(1194.04 485.13) rotate(30.66) scale(.88 1)"><tspan x="0" y="0">h</tspan></text>
  <text class="st13" transform="translate(1197.6 486.67) rotate(35.08) scale(.88 1)"><tspan x="0" y="0">e</tspan></text>
  <text class="st14" transform="translate(1201.16 489.18) rotate(36.6) scale(.88 1)"><tspan x="0" y="0">c</tspan></text>
  <text class="st15" transform="translate(1204.83 491.76) rotate(54.04) scale(.88 1)"><tspan x="0" y="0">k</tspan></text>
  <path class="st9" d="M1175.62,539.1c-.34.06-.67-.14-.81-.45-1.97-4.28-5.89-7.06-6.8-7.76-1.56-1.37-11.5-4.46-11.5-5.28,0-.88,5.36-3.68,8.9-3.54,3.41.13,9.46,1.66,13.2,7.03.23.33.68.43,1.02.21,3.38-3.53,22.55-14.72,22.55-14.72,0,0,12.02-6.41,18.72-6.42.7,0,1.33.05,1.8.14.8.16.39.74.12.89,0,0-.15.13-.73.36-4.79.96-23.77,15.24-25.71,16.67-1.44,1.06-20.76,12.86-20.76,12.86Z"/>
  <path class="st8" d="M1185.88,540.5"/>
</svg>